<?xml version="1.0" encoding="UTF-8"?>
<svg xmlns="http://www.w3.org/2000/svg" xmlns:xlink="http://www.w3.org/1999/xlink" width="375pt" height="374.999991pt" viewBox="0 0 375 374.999991" version="1.2">
<defs>
<clipPath id="clip1">
  <path d="M 0 18.75 L 371.25 18.75 L 371.25 356.25 L 0 356.25 Z M 0 18.75 "/>
</clipPath>
</defs>
<g id="surface1">
<path style=" stroke:none;fill-rule:nonzero;fill:rgb(100%,0%,0%);fill-opacity:1;" d="M 353.34375 121.5625 C 353.34375 216.839844 247.582031 268.390625 185.664062 330.714844 C 123.738281 268.390625 17.972656 216.839844 17.972656 121.5625 C 17.972656 74.59375 55.507812 36.839844 101.816406 36.839844 C 135.476562 36.839844 164.5 56.726562 177.847656 85.484375 C 178.242188 86.167969 178.714844 86.800781 179.273438 87.355469 C 180.902344 88.988281 183.164062 90 185.664062 90 C 188.15625 90 190.414062 88.988281 192.054688 87.355469 C 192.617188 86.785156 193.109375 86.136719 193.511719 85.433594 C 206.871094 56.734375 235.867188 36.921875 269.503906 36.921875 C 315.808594 36.921875 353.34375 74.59375 353.34375 121.5625 "/>
<g clip-path="url(#clip1)" clip-rule="nonzero">
<path style=" stroke:none;fill-rule:nonzero;fill:rgb(100%,8.628845%,8.628845%);fill-opacity:1;" d="M 269.503906 18.941406 C 235.824219 18.941406 204.472656 35.820312 185.667969 63.0625 C 166.867188 35.769531 135.515625 18.859375 101.816406 18.859375 C 74.570312 18.859375 48.980469 29.535156 29.761719 48.921875 C 10.566406 68.296875 0 94.085938 0 121.5625 C 0 200.320312 63.230469 251.515625 119.015625 296.683594 C 138.691406 312.617188 157.28125 327.664062 172.914062 343.394531 L 185.664062 356.230469 L 198.414062 343.394531 C 214.046875 327.664062 232.628906 312.617188 252.308594 296.683594 C 308.09375 251.511719 371.324219 200.316406 371.324219 121.5625 C 371.324219 64.972656 325.648438 18.941406 269.503906 18.941406 Z M 185.664062 330.714844 C 123.738281 268.390625 17.972656 216.839844 17.972656 121.5625 C 17.972656 74.59375 55.507812 36.839844 101.816406 36.839844 C 135.476562 36.839844 164.5 56.726562 177.847656 85.484375 C 178.242188 86.167969 178.714844 86.796875 179.273438 87.355469 C 180.902344 88.988281 183.164062 90 185.664062 90 C 188.15625 90 190.414062 88.988281 192.054688 87.355469 C 192.617188 86.785156 193.109375 86.136719 193.511719 85.433594 C 206.871094 56.734375 235.867188 36.921875 269.503906 36.921875 C 315.808594 36.921875 353.34375 74.59375 353.34375 121.5625 C 353.34375 216.839844 247.582031 268.390625 185.664062 330.714844 "/>
</g>
<path style=" stroke:none;fill-rule:nonzero;fill:rgb(100%,100%,100%);fill-opacity:1;" d="M 326.226562 130.605469 C 321.234375 130.605469 317.183594 126.554688 317.183594 121.5625 L 317.183594 121.003906 C 316.941406 94.621094 295.550781 73.09375 269.503906 73.09375 C 264.511719 73.09375 260.464844 69.042969 260.464844 64.050781 C 260.464844 59.058594 264.511719 55.007812 269.503906 55.007812 C 305.425781 55.007812 334.925781 84.578125 335.265625 120.921875 L 335.265625 121.5625 C 335.265625 126.554688 331.214844 130.605469 326.226562 130.605469 "/>
</g>
</svg>
