<?xml version="1.0" encoding="UTF-8"?>
<svg xmlns="http://www.w3.org/2000/svg" xmlns:xlink="http://www.w3.org/1999/xlink" width="375pt" height="374.999991pt" viewBox="0 0 375 374.999991" version="1.2">
<defs>
<clipPath id="clip1">
  <path d="M 36 58.972656 L 338.84375 58.972656 L 338.84375 316.222656 L 36 316.222656 Z M 36 58.972656 "/>
</clipPath>
</defs>
<g id="surface1">
<g clip-path="url(#clip1)" clip-rule="nonzero">
<path style=" stroke:none;fill-rule:nonzero;fill:rgb(100%,100%,100%);fill-opacity:1;" d="M 254.683594 58.953125 C 239.878906 58.953125 225.34375 62.898438 212.609375 70.328125 C 203.960938 75.40625 196.324219 81.949219 189.949219 89.785156 L 187.335938 93 L 184.722656 89.785156 C 178.347656 81.949219 170.730469 75.40625 162.0625 70.328125 C 149.347656 62.898438 134.792969 58.953125 119.988281 58.953125 C 74.785156 58.953125 38.1875 95.488281 36.660156 142.128906 C 35.878906 165.53125 43.359375 189.253906 58.886719 212.683594 C 71.125 231.125 88.347656 249.402344 110.097656 267.027344 C 147.203125 297.128906 184.667969 314.910156 185.046875 315.09375 L 187.335938 316.179688 L 189.628906 315.09375 C 191.171875 314.363281 227.765625 296.890625 264.59375 267.027344 C 286.34375 249.402344 303.566406 231.109375 315.785156 212.683594 C 331.324219 189.253906 338.796875 165.519531 338.03125 142.128906 C 336.484375 95.488281 299.886719 58.953125 254.683594 58.953125 Z M 306.953125 206.582031 C 295.371094 224.085938 278.9375 241.53125 258.117188 258.464844 C 229.28125 281.875 200.078125 297.738281 188.871094 303.460938 L 187.335938 304.246094 L 185.800781 303.460938 C 174.574219 297.726562 145.355469 281.847656 116.574219 258.464844 C 95.726562 241.515625 79.292969 224.066406 67.71875 206.582031 C 53.523438 185.113281 46.679688 163.546875 47.367188 142.476562 C 48.011719 122.855469 55.757812 104.558594 69.183594 90.972656 C 82.71875 77.269531 100.761719 69.71875 119.988281 69.71875 C 132.898438 69.71875 145.574219 73.136719 156.660156 79.636719 C 167.40625 85.921875 176.414062 94.917969 182.71875 105.664062 L 187.34375 113.535156 L 191.964844 105.664062 C 198.257812 94.917969 207.273438 85.921875 218.019531 79.636719 C 229.105469 73.136719 241.777344 69.71875 254.683594 69.71875 C 273.914062 69.71875 291.957031 77.269531 305.488281 90.972656 C 318.914062 104.570312 326.660156 122.855469 327.3125 142.476562 C 328.003906 163.546875 321.15625 185.117188 306.953125 206.582031 Z M 306.953125 206.582031 "/>
</g>
<path style=" stroke:none;fill-rule:nonzero;fill:rgb(100%,100%,100%);fill-opacity:1;" d="M 120.539062 93.71875 C 93.511719 93.71875 71.519531 115.765625 71.519531 142.863281 C 71.519531 145.832031 73.921875 148.246094 76.875 148.246094 C 79.828125 148.246094 82.238281 145.832031 82.238281 142.863281 C 82.238281 121.703125 99.425781 104.484375 120.539062 104.484375 C 123.496094 104.484375 125.90625 102.070312 125.90625 99.101562 C 125.90625 96.136719 123.492188 93.71875 120.539062 93.71875 Z M 120.539062 93.71875 "/>
</g>
</svg>
