<?xml version="1.0" encoding="UTF-8"?>
<svg xmlns="http://www.w3.org/2000/svg" xmlns:xlink="http://www.w3.org/1999/xlink" width="375pt" height="374.999991pt" viewBox="0 0 375 374.999991" version="1.2">
<defs>
<clipPath id="clip1">
  <path d="M 33 66 L 342 66 L 342 334.453125 L 33 334.453125 Z M 33 66 "/>
</clipPath>
</defs>
<g id="surface1">
<path style=" stroke:none;fill-rule:nonzero;fill:rgb(100%,100%,100%);fill-opacity:1;" d="M 332.503906 116.527344 C 301.6875 40.425781 187.484375 63.980469 187.484375 116.527344 C 187.484375 63.980469 73.285156 40.425781 42.464844 116.527344 C 11.652344 192.621094 78.269531 251.957031 105.910156 279.585938 C 133.558594 307.214844 187.484375 333.03125 187.484375 333.03125 C 187.484375 333.03125 241.414062 307.214844 269.058594 279.585938 C 296.707031 251.957031 363.320312 192.621094 332.503906 116.527344 "/>
<g clip-path="url(#clip1)" clip-rule="nonzero">
<path style=" stroke:none;fill-rule:nonzero;fill:rgb(100%,100%,100%);fill-opacity:1;" d="M 332.503906 116.527344 L 333.773438 116.007812 C 326.652344 98.414062 315.089844 85.996094 301.519531 78.03125 C 287.945312 70.058594 272.386719 66.515625 257.199219 66.515625 C 239.027344 66.519531 221.367188 71.574219 208.148438 80.332031 C 201.539062 84.710938 196.042969 90.023438 192.183594 96.117188 C 188.324219 102.210938 186.113281 109.09375 186.113281 116.527344 C 186.113281 116.882812 186.261719 117.238281 186.519531 117.492188 C 186.769531 117.746094 187.125 117.894531 187.484375 117.894531 C 187.84375 117.894531 188.199219 117.746094 188.457031 117.492188 C 188.707031 117.238281 188.855469 116.882812 188.855469 116.527344 C 188.859375 109.097656 186.648438 102.210938 182.789062 96.117188 C 176.996094 86.976562 167.53125 79.59375 156.140625 74.476562 C 144.742188 69.367188 131.398438 66.515625 117.773438 66.515625 C 102.582031 66.515625 87.027344 70.058594 73.453125 78.027344 C 59.882812 85.996094 48.316406 98.414062 41.195312 116.007812 C 35.554688 129.945312 33.128906 143.363281 33.128906 156.128906 C 33.132812 185.003906 45.488281 210.476562 60.601562 231.523438 C 75.722656 252.574219 93.648438 269.265625 104.945312 280.554688 C 118.929688 294.519531 139.382812 307.910156 156.375 317.851562 C 173.363281 327.785156 186.871094 334.253906 186.894531 334.269531 C 187.265625 334.445312 187.703125 334.445312 188.078125 334.269531 C 188.097656 334.253906 201.613281 327.785156 218.597656 317.851562 C 235.585938 307.910156 256.046875 294.519531 270.027344 280.554688 C 281.320312 269.265625 299.25 252.574219 314.367188 231.527344 C 329.484375 210.476562 341.835938 185.003906 341.839844 156.128906 C 341.84375 143.363281 339.421875 129.945312 333.773438 116.007812 L 332.503906 116.527344 L 331.234375 117.035156 C 336.753906 130.664062 339.097656 143.707031 339.097656 156.128906 C 339.101562 184.199219 327.070312 209.136719 312.140625 229.929688 C 297.214844 250.710938 279.4375 267.28125 268.09375 278.617188 C 254.429688 292.277344 234.097656 305.617188 217.214844 315.488281 C 208.769531 320.425781 201.183594 324.511719 195.710938 327.351562 C 192.976562 328.773438 190.769531 329.886719 189.246094 330.640625 C 188.488281 331.019531 187.894531 331.308594 187.5 331.503906 C 187.101562 331.699219 186.894531 331.796875 186.894531 331.796875 L 187.484375 333.03125 L 188.078125 331.796875 C 188.078125 331.796875 187.875 331.699219 187.472656 331.503906 C 184.484375 330.046875 170.75 323.25 154.550781 313.597656 C 138.355469 303.949219 119.6875 291.421875 106.882812 278.617188 C 95.535156 267.28125 77.757812 250.710938 62.828125 229.929688 C 47.898438 209.136719 35.867188 184.195312 35.871094 156.128906 C 35.871094 143.707031 38.222656 130.664062 43.734375 117.035156 C 50.644531 99.984375 61.757812 88.082031 74.84375 80.394531 C 87.925781 72.707031 103.007812 69.253906 117.773438 69.253906 C 135.433594 69.25 152.628906 74.203125 165.308594 82.613281 C 171.652344 86.816406 176.863281 91.875 180.476562 97.582031 C 184.089844 103.292969 186.113281 109.640625 186.113281 116.527344 C 186.113281 116.886719 186.261719 117.238281 186.519531 117.492188 C 186.769531 117.746094 187.125 117.894531 187.484375 117.894531 C 187.84375 117.894531 188.199219 117.746094 188.457031 117.492188 C 188.707031 117.238281 188.855469 116.882812 188.855469 116.527344 C 188.859375 109.640625 190.882812 103.292969 194.5 97.582031 C 199.914062 89.019531 208.9375 81.917969 219.953125 76.976562 C 230.96875 72.035156 243.953125 69.253906 257.199219 69.253906 C 271.964844 69.253906 287.046875 72.707031 300.128906 80.394531 C 313.214844 88.082031 324.324219 99.984375 331.234375 117.035156 L 332.503906 116.527344 "/>
</g>
</g>
</svg>
