<?xml version="1.0" encoding="UTF-8"?>
<svg xmlns="http://www.w3.org/2000/svg" xmlns:xlink="http://www.w3.org/1999/xlink" width="375pt" height="374.999991pt" viewBox="0 0 375 374.999991" version="1.2">
<defs>
<clipPath id="clip1">
  <path d="M 1 19 L 374.277344 19 L 374.277344 356.25 L 1 356.25 Z M 1 19 "/>
</clipPath>
<clipPath id="clip2">
  <path d="M 0.777344 18.757812 L 375 18.757812 L 375 356.972656 L 0.777344 356.972656 Z M 0.777344 18.757812 "/>
</clipPath>
</defs>
<g id="surface1">
<g clip-path="url(#clip1)" clip-rule="nonzero">
<path style=" stroke:none;fill-rule:nonzero;fill:rgb(100%,17.248535%,17.248535%);fill-opacity:1;" d="M 374.042969 123.578125 C 373.707031 128.621094 373.238281 133.65625 372.304688 138.535156 C 371.324219 144.199219 369.996094 149.773438 368.3125 155.207031 C 366.6875 160.667969 364.714844 165.988281 362.527344 171.199219 C 358.171875 181.632812 352.859375 191.574219 346.984375 201.132812 C 335.167969 220.222656 321.09375 237.789062 305.734375 254.410156 C 290.363281 271.035156 273.644531 286.703125 255.871094 301.753906 C 238.070312 316.785156 219.207031 331.203125 199.074219 344.917969 C 195.652344 347.199219 192.207031 349.492188 188.640625 351.875 C 186.0625 350.109375 183.476562 348.339844 180.878906 346.5625 C 179.09375 345.304688 177.300781 344.042969 175.503906 342.777344 C 172.09375 340.355469 168.691406 337.886719 165.289062 335.378906 C 158.488281 330.359375 151.6875 325.179688 144.929688 319.851562 C 131.414062 309.191406 118.035156 297.953125 105.148438 286.167969 C 79.421875 262.609375 55.457031 236.882812 37.210938 209.441406 C 56.027344 237.910156 79.53125 263.128906 104.691406 286.382812 C 117.304688 298.003906 130.425781 309.097656 143.902344 319.75 C 150.644531 325.070312 157.480469 330.277344 164.410156 335.367188 C 167.875 337.910156 171.363281 340.421875 174.878906 342.902344 L 180.347656 346.71875 L 188.640625 352.34375 L 199.230469 345.203125 L 206.597656 340.078125 C 211.488281 336.628906 216.320312 333.117188 221.113281 329.554688 C 230.699219 322.421875 240.105469 315.085938 249.304688 307.523438 C 267.707031 292.398438 285.339844 276.421875 301.734375 259.347656 C 318.097656 242.253906 333.324219 224.097656 346.070312 204.230469 C 349.25 199.261719 352.292969 194.207031 355.09375 189.007812 C 357.933594 183.828125 360.539062 178.519531 362.894531 173.085938 C 367.632812 162.242188 371.351562 150.863281 373.472656 139.082031 C 371.824219 155.65625 365.894531 174.957031 354.882812 194.707031 C 341.4375 218.382812 324.648438 239.203125 306.730469 258.390625 C 288.746094 277.558594 269.464844 295.0625 249.488281 311.445312 C 249.230469 311.132812 248.722656 310.515625 248.464844 310.207031 C 239.507812 317.726562 230.402344 324.960938 221.15625 331.925781 C 216.535156 335.410156 211.875 338.824219 207.179688 342.175781 L 200.105469 347.144531 L 194.933594 350.675781 L 188.640625 354.914062 L 180.359375 349.339844 L 174.945312 345.601562 C 171.847656 343.445312 168.777344 341.253906 165.726562 339.050781 C 159.636719 334.632812 153.628906 330.132812 147.707031 325.535156 C 135.863281 316.351562 124.34375 306.835938 113.179688 296.933594 C 90.882812 277.105469 69.824219 255.875 51.261719 232.246094 C 41.984375 220.4375 33.398438 207.976562 25.921875 194.710938 C 18.476562 181.445312 12.128906 167.320312 8.03125 152.234375 C 3.941406 137.191406 2.242188 121.070312 4.375 105.0625 C 5.414062 97.09375 7.421875 89.132812 10.253906 81.640625 C 10.851562 79.722656 11.683594 77.871094 12.5 76.011719 C 13.335938 74.167969 14.046875 72.261719 15 70.457031 L 17.898438 65.042969 C 18.355469 64.125 18.898438 63.25 19.472656 62.394531 L 21.15625 59.792969 C 17.875 64.332031 19.433594 61.402344 19.867188 60.277344 C 20.082031 59.953125 20.289062 59.640625 20.492188 59.339844 C 20.289062 59.640625 20.082031 59.953125 19.867188 60.277344 C 20.066406 59.773438 20.039062 59.632812 19.273438 60.648438 C 18.894531 61.15625 18.324219 61.953125 17.515625 63.140625 C 16.816406 64.390625 15.894531 66.035156 14.695312 68.1875 C 15.894531 66.035156 16.816406 64.390625 17.515625 63.140625 C 18.324219 61.953125 18.894531 61.15625 19.273438 60.648438 C 20.039062 59.632812 20.066406 59.773438 19.867188 60.277344 C 18.707031 62 17.554688 63.722656 16.621094 65.558594 L 13.671875 70.976562 L 11.179688 76.566406 C 10.777344 77.5 10.332031 78.421875 9.96875 79.367188 L 8.957031 82.226562 C 6.042969 89.71875 4.105469 97.796875 3.074219 105.8125 C 1.003906 121.945312 2.792969 138.167969 6.953125 153.269531 C 11.105469 168.425781 17.535156 182.570312 25.054688 195.828125 C 32.605469 209.082031 41.246094 221.523438 50.578125 233.289062 C 69.253906 256.839844 90.382812 277.957031 112.707031 297.710938 C 123.886719 307.578125 135.40625 317.074219 147.238281 326.257812 C 153.152344 330.855469 159.148438 335.363281 165.226562 339.796875 C 168.269531 342.011719 171.332031 344.203125 174.421875 346.378906 L 179.925781 350.195312 L 188.640625 356.097656 C 192.429688 353.550781 196.230469 350.996094 200.039062 348.4375 C 202.203125 346.945312 204.371094 345.449219 206.539062 343.949219 C 210.863281 340.925781 215.164062 337.839844 219.449219 334.699219 C 228.019531 328.417969 236.511719 321.90625 244.910156 315.171875 C 236.605469 321.855469 228.183594 328.351562 219.636719 334.648438 C 215.363281 337.800781 211.0625 340.902344 206.722656 343.953125 L 200.1875 348.492188 L 188.640625 356.273438 L 181.871094 351.707031 L 176.460938 348.011719 L 169.320312 342.988281 C 164.585938 339.609375 159.902344 336.179688 155.261719 332.695312 C 145.976562 325.730469 136.875 318.558594 127.945312 311.175781 C 110.097656 296.402344 92.9375 280.796875 76.824219 264.050781 C 60.769531 247.269531 45.671875 229.382812 32.769531 209.660156 C 26.355469 199.78125 20.4375 189.484375 15.523438 178.578125 C 13.035156 173.148438 10.808594 167.558594 8.894531 161.828125 C 6.941406 156.117188 5.34375 150.242188 4.132812 144.253906 C 3.46875 141.269531 3.050781 138.226562 2.574219 135.195312 C 2.25 132.128906 1.863281 129.078125 1.746094 125.980469 C 1.414062 119.808594 1.5 113.566406 2.253906 107.367188 C 3 101.183594 4.117188 94.996094 5.976562 89.015625 C 6.839844 86.011719 7.984375 83.160156 8.988281 80.226562 C 9.457031 78.753906 10.152344 77.347656 10.773438 75.917969 L 12.683594 71.648438 C 18.027344 60.355469 25.738281 49.867188 35.445312 41.449219 C 40.207031 37.128906 45.671875 33.636719 51.265625 30.476562 L 55.605469 28.367188 L 57.785156 27.332031 L 60.03125 26.464844 L 64.53125 24.746094 L 69.140625 23.390625 C 81.472656 19.816406 94.394531 19.230469 106.945312 20.5 C 119.515625 21.859375 131.730469 25.488281 143.1875 30.734375 C 154.59375 36.105469 165.171875 43.3125 174.425781 52.066406 C 178.921875 56.578125 183.296875 61.269531 186.988281 66.539062 L 187.695312 67.511719 L 188.046875 68 C 188.074219 68.039062 188.023438 67.96875 188.023438 67.96875 C 188.003906 67.945312 188.078125 68.050781 188.097656 68.085938 L 188.292969 68.394531 C 188.425781 68.597656 188.523438 68.820312 188.640625 69.03125 C 188.785156 68.75 188.921875 68.464844 189.097656 68.203125 L 189.222656 68 C 189.238281 67.976562 189.289062 67.90625 189.222656 67.996094 L 189.980469 66.945312 C 191.226562 65.265625 192.386719 63.507812 193.78125 61.941406 C 199.015625 55.378906 205.132812 49.550781 211.738281 44.40625 C 215.808594 41.105469 222.367188 36.722656 229.316406 33.082031 C 231.074219 32.207031 232.785156 31.238281 234.550781 30.472656 C 236.308594 29.703125 238.035156 28.953125 239.683594 28.234375 C 241.335938 27.519531 242.980469 27.003906 244.472656 26.441406 C 245.976562 25.914062 247.339844 25.351562 248.609375 25.019531 C 268.71875 19.320312 290.574219 18.75 310.796875 25.34375 C 320.859375 28.617188 330.421875 33.710938 338.621094 40.464844 C 346.851562 47.179688 353.730469 55.40625 359.097656 64.367188 C 357.316406 62.394531 357.085938 63.332031 357.171875 64.597656 C 357.179688 65.910156 357.347656 67.632812 356.542969 67.371094 C 355.769531 67.101562 353.972656 64.867188 349.289062 58.875 C 348.027344 57.445312 346.640625 55.730469 344.953125 53.832031 C 344.058594 52.925781 343.101562 51.960938 342.085938 50.933594 C 341.070312 49.898438 340.019531 48.773438 338.742188 47.75 C 337.503906 46.679688 336.191406 45.550781 334.808594 44.351562 C 333.328125 43.277344 331.765625 42.140625 330.117188 40.941406 C 326.742188 38.65625 322.871094 36.335938 318.363281 34.230469 C 318.195312 34.597656 317.863281 35.335938 317.695312 35.703125 C 326.464844 39.976562 333.597656 45.59375 339.097656 51.40625 C 344.679688 57.195312 348.34375 63.386719 351.28125 68.703125 C 352.535156 71.5 353.796875 73.996094 354.675781 76.386719 C 355.511719 78.796875 356.230469 80.96875 356.839844 82.878906 C 357.796875 86.816406 358.296875 89.730469 358.449219 91.507812 C 358.546875 93.375 358.285156 94.089844 357.644531 93.542969 C 357.320312 93.277344 356.914062 92.648438 356.390625 91.773438 C 355.859375 90.921875 355.226562 89.761719 354.496094 88.292969 C 353.730469 86.835938 353.023438 84.992188 351.847656 83.011719 C 351.304688 81.992188 350.722656 80.90625 350.105469 79.746094 C 349.796875 79.164062 349.484375 78.5625 349.15625 77.941406 C 348.785156 77.347656 348.402344 76.742188 348.007812 76.113281 C 347.238281 74.851562 346.417969 73.515625 345.554688 72.109375 C 344.59375 70.773438 343.582031 69.371094 342.515625 67.894531 C 341.519531 66.367188 340.21875 64.980469 338.941406 63.464844 C 338.296875 62.714844 337.664062 61.921875 336.96875 61.15625 C 336.234375 60.433594 335.480469 59.691406 334.714844 58.9375 C 332.730469 56.765625 330.351562 54.996094 328.09375 53.046875 C 326.898438 52.160156 325.640625 51.332031 324.414062 50.457031 C 323.21875 49.542969 321.886719 48.8125 320.5625 48.0625 C 317.984375 46.4375 315.132812 45.242188 312.324219 43.914062 C 310.863281 43.375 309.390625 42.832031 307.914062 42.289062 C 306.457031 41.695312 304.878906 41.398438 303.359375 40.925781 C 297.199219 39.296875 290.695312 38.308594 284.007812 38.203125 C 277.316406 38.132812 270.476562 38.796875 263.667969 40.207031 C 256.851562 41.578125 250.089844 43.804688 243.574219 46.746094 C 237.054688 49.675781 230.761719 53.304688 224.898438 57.597656 C 219.039062 61.910156 213.699219 66.964844 208.984375 72.550781 L 207.207031 74.648438 C 206.644531 75.367188 206.125 76.121094 205.582031 76.855469 L 203.457031 79.761719 C 202.359375 81.414062 201.382812 83.289062 200.367188 85.132812 C 198.371094 88.808594 196.273438 92.5 194.363281 96.167969 C 192.457031 99.839844 190.546875 103.511719 188.640625 107.1875 C 186.132812 102.378906 183.71875 97.574219 181.132812 92.753906 L 177.179688 85.511719 L 175.199219 81.886719 C 174.867188 81.296875 174.515625 80.761719 174.171875 80.195312 C 173.871094 79.667969 173.320312 78.996094 172.988281 78.515625 C 171.566406 76.566406 170.214844 74.558594 168.589844 72.753906 L 166.257812 69.964844 L 163.722656 67.339844 C 156.929688 60.386719 149.035156 54.367188 140.355469 49.792969 C 131.707031 45.183594 122.394531 41.832031 112.898438 39.941406 C 103.402344 38.007812 93.703125 37.792969 84.445312 39.0625 C 75.898438 40.242188 67.644531 42.816406 60.175781 46.792969 C 52.683594 50.734375 46.097656 56.203125 40.582031 62.664062 C 35.078125 69.140625 30.613281 76.621094 27.359375 84.765625 C 26.472656 86.757812 25.867188 88.90625 25.089844 90.964844 C 24.285156 93.03125 23.769531 95.128906 23.175781 97.21875 C 22.625 99.3125 22.195312 101.441406 21.773438 103.5625 C 21.453125 105.710938 21.027344 107.839844 20.867188 110.011719 C 18.9375 127.316406 22.398438 145.199219 28.851562 162.140625 C 35.371094 179.125 44.746094 195.304688 55.539062 210.585938 C 72.878906 235.195312 94.519531 258.082031 117.945312 279.4375 C 129.679688 290.113281 141.917969 300.40625 154.511719 310.300781 C 160.800781 315.253906 167.1875 320.097656 173.644531 324.835938 C 176.875 327.203125 180.125 329.546875 183.390625 331.851562 L 188.640625 335.546875 L 189.246094 335.164062 L 191.121094 333.898438 L 198.144531 329.039062 C 202.804688 325.769531 207.421875 322.441406 211.988281 319.066406 C 221.132812 312.316406 230.09375 305.378906 238.839844 298.285156 C 256.324219 284.085938 272.988281 269.277344 288.363281 253.816406 C 295.066406 247.046875 302.675781 238.679688 310.222656 229.53125 C 313.976562 224.945312 317.703125 220.15625 321.304688 215.285156 C 324.867188 210.390625 328.304688 205.421875 331.496094 200.480469 C 337.839844 190.582031 343.183594 180.824219 347.050781 172.375 C 350.972656 163.945312 353.503906 156.886719 355.125 152.558594 C 356.226562 149.433594 356.984375 147.035156 357.59375 145.246094 C 358.242188 143.46875 358.625 142.28125 358.988281 141.570312 C 359.691406 140.148438 360.066406 140.59375 360.332031 141.695312 C 357.230469 156.742188 351.347656 171.226562 344 184.890625 C 336.632812 198.566406 327.792969 211.480469 318.167969 223.742188 C 298.851562 248.273438 276.46875 270.28125 252.945312 290.582031 C 242.277344 299.699219 231.316406 308.488281 220.117188 316.953125 C 214.511719 321.179688 208.851562 325.332031 203.132812 329.390625 C 200.269531 331.421875 197.394531 333.429688 194.503906 335.410156 L 190.777344 337.9375 L 188.640625 339.335938 L 184.074219 336.144531 L 176.71875 330.902344 C 171.84375 327.375 167.011719 323.773438 162.222656 320.117188 C 152.648438 312.804688 143.265625 305.242188 134.085938 297.457031 C 115.757812 281.867188 98.230469 265.34375 82.132812 247.636719 C 97.90625 265.140625 115.246094 281.621094 133.554688 297.257812 C 142.722656 305.066406 152.136719 312.667969 161.785156 320.042969 C 166.605469 323.730469 171.484375 327.363281 176.414062 330.933594 L 183.859375 336.234375 L 188.640625 339.558594 L 190.835938 338.109375 L 194.546875 335.589844 C 197.417969 333.617188 200.277344 331.613281 203.125 329.585938 C 208.820312 325.53125 214.46875 321.375 220.066406 317.132812 C 231.253906 308.640625 242.238281 299.792969 252.945312 290.582031 C 276.480469 270.40625 298.765625 248.636719 318.039062 224.476562 C 327.644531 212.390625 336.480469 199.695312 343.914062 186.25 C 351.324219 172.816406 357.339844 158.589844 360.710938 143.75 C 361.027344 146.085938 361.300781 148.421875 363 144.933594 C 363 144.933594 363.234375 143.757812 363.621094 141.851562 C 364.054688 139.953125 364.449219 137.285156 364.90625 134.328125 C 365.730469 128.398438 366.003906 121.210938 365.828125 116.429688 C 365.972656 106.84375 365.074219 100.210938 364.683594 95.933594 C 364.140625 91.6875 364.179688 89.726562 364.769531 89.542969 C 365.828125 89.175781 369.535156 95.941406 371.886719 105.988281 C 372.914062 111.117188 373.773438 116.976562 374.042969 123.578125 "/>
</g>
<g clip-path="url(#clip2)" clip-rule="nonzero">
<path style=" stroke:none;fill-rule:nonzero;fill:rgb(100%,17.248535%,17.248535%);fill-opacity:1;" d="M 278.261719 18.757812 C 237.808594 18.757812 203.027344 43.535156 188.28125 78.722656 C 173.53125 43.535156 138.75 18.757812 98.296875 18.757812 C 44.523438 18.757812 0.777344 62.542969 0.777344 116.367188 C 0.777344 141.769531 10.628906 170.28125 30.058594 201.109375 C 45.28125 225.269531 66.445312 251.003906 92.960938 277.605469 C 137.878906 322.675781 183.453125 355.257812 183.90625 355.578125 C 185.214844 356.511719 186.75 356.972656 188.277344 356.972656 C 189.808594 356.972656 191.339844 356.511719 192.648438 355.578125 C 193.101562 355.257812 238.675781 322.675781 283.59375 277.605469 C 310.113281 251.007812 331.273438 225.269531 346.496094 201.109375 C 365.925781 170.28125 375.777344 141.769531 375.777344 116.367188 C 375.78125 62.542969 332.03125 18.757812 278.261719 18.757812 Z M 188.277344 340.066406 C 161.019531 319.761719 15.863281 207.351562 15.863281 116.367188 C 15.863281 70.871094 52.839844 33.855469 98.296875 33.855469 C 143.753906 33.855469 180.734375 70.871094 180.734375 116.367188 C 180.734375 120.535156 184.113281 123.917969 188.277344 123.917969 C 192.445312 123.917969 195.820312 120.535156 195.820312 116.367188 C 195.820312 70.871094 232.804688 33.855469 278.261719 33.855469 C 323.714844 33.855469 360.691406 70.871094 360.691406 116.367188 C 360.691406 207.351562 215.539062 319.761719 188.277344 340.066406 "/>
</g>
<path style=" stroke:none;fill-rule:nonzero;fill:rgb(100%,17.248535%,17.248535%);fill-opacity:1;" d="M 278.261719 52.734375 C 274.097656 52.734375 270.71875 56.113281 270.71875 60.28125 C 270.71875 64.449219 274.097656 67.832031 278.261719 67.832031 C 305 67.832031 326.75 89.605469 326.75 116.367188 C 326.75 120.539062 330.128906 123.917969 334.292969 123.917969 C 338.460938 123.917969 341.835938 120.539062 341.835938 116.367188 C 341.835938 81.277344 313.316406 52.734375 278.261719 52.734375 "/>
<path style=" stroke:none;fill-rule:nonzero;fill:rgb(100%,17.248535%,17.248535%);fill-opacity:1;" d="M 331.597656 132.757812 C 321.890625 132.757812 321.878906 147.855469 331.597656 147.855469 C 341.308594 147.855469 341.320312 132.757812 331.597656 132.757812 "/>
</g>
</svg>
